<svg width="351" height="235" viewBox="0 0 351 235" fill="none" xmlns="http://www.w3.org/2000/svg">
<g clip-path="url(#clip0_1_212)">
<path d="M177.807 66.4783C174.686 61.3027 170.988 55.7768 165.197 54.0869C158.49 52.1298 151.601 56.0176 145.757 59.854C128.28 71.3276 111.45 83.7618 95.3428 97.0994L95.3604 97.3003C107.9 96.4332 120.44 95.5661 132.98 94.699C142.04 94.0725 151.411 93.3596 159.418 89.0619C162.456 87.4311 165.418 85.2528 168.861 85.101C173.138 84.9124 176.868 87.9078 179.799 91.0374C197.136 109.55 202.153 137.859 221.604 154.124C209.339 123.794 194.694 94.4864 177.807 66.4783Z" fill="#F2F2F2"/>
<path d="M284.378 223.496C282.461 221.069 281.678 220.5 279.787 218.05C264.388 198.08 249.914 177.435 236.366 156.116C227.163 141.636 218.417 126.879 210.127 111.844C206.18 104.696 202.341 97.4915 198.611 90.2313C195.716 84.6019 192.886 78.9389 190.121 73.2422C189.33 71.615 188.562 69.9805 187.797 68.3421C185.995 64.4895 184.227 60.6181 182.328 56.8178C180.165 52.4864 177.531 47.9455 173.558 45.0354C171.75 43.6567 169.588 42.8225 167.325 42.6303C164.091 42.4208 161.106 43.7599 158.301 45.2224C137.777 55.9538 118.562 69.4082 101.183 84.7179C83.7588 100.062 68.1845 117.397 54.7776 136.37C54.3674 136.957 53.3974 136.396 53.8115 135.805C55.4417 133.493 57.1041 131.207 58.7989 128.945C79.8725 100.841 105.712 76.674 135.136 57.5472C140.086 54.3304 145.13 51.2645 150.266 48.3494C152.855 46.8794 155.455 45.4281 158.1 44.0666C160.692 42.7313 163.445 41.5306 166.407 41.4857C176.487 41.3286 181.705 52.7744 185.29 60.476C186.417 62.8998 187.557 65.3161 188.711 67.725C193.072 76.8704 197.6 85.9323 202.297 94.9106C205.195 100.454 208.157 105.965 211.182 111.443C220.598 128.504 230.605 145.218 241.204 161.588C255.245 183.271 269.174 202.426 285.169 222.703C285.61 223.264 284.822 224.065 284.378 223.496Z" fill="#E4E4E4"/>
<path d="M100.187 79.0661C99.6011 78.4115 99.0191 77.7569 98.4297 77.1023C93.7817 71.948 88.7944 66.8535 82.4117 63.8985C79.3684 62.4451 76.0462 61.6729 72.6756 61.6355C69.1915 61.6468 65.7858 62.5632 62.5666 63.8462C61.0446 64.4559 59.5561 65.1478 58.0902 65.8847C56.4152 66.73 54.7701 67.6315 53.1326 68.5404C50.0587 70.2461 47.0248 72.0265 44.0307 73.8818C38.0733 77.5736 32.3025 81.5472 26.7182 85.8026C23.8234 88.0095 20.9883 90.2887 18.213 92.6402C15.6317 94.8246 13.1025 97.0676 10.6256 99.3692C10.0959 99.8592 9.30505 99.0663 9.83472 98.5763C10.4875 97.9666 11.1478 97.3606 11.8081 96.7622C13.6732 95.0715 15.5683 93.4132 17.4932 91.7873C21.0033 88.8174 24.6043 85.9622 28.2961 83.2217C34.0371 78.9576 39.9758 74.9827 46.112 71.2971C49.1784 69.4568 52.287 67.6938 55.4378 66.0081C56.3892 65.4994 57.3516 65.002 58.3252 64.5307C60.5343 63.4133 62.8296 62.4764 65.1889 61.729C68.531 60.645 72.0669 60.2967 75.5555 60.7079C78.9238 61.1992 82.169 62.3249 85.12 64.0257C91.3869 67.538 96.2474 72.9691 100.978 78.2693C101.455 78.808 100.668 79.6047 100.187 79.0661Z" fill="#E4E4E4"/>
<path d="M228.593 132.479L243.61 126.971L251.066 124.237C253.494 123.346 255.917 122.332 258.427 121.695C260.608 121.07 262.925 121.1 265.09 121.78C267.02 122.496 268.787 123.595 270.286 125.01C271.817 126.424 273.242 127.949 274.549 129.574C276.172 131.53 277.771 133.507 279.378 135.477C286.008 143.608 292.595 151.774 299.139 159.975C305.682 168.176 312.182 176.413 318.638 184.683C325.11 192.974 331.537 201.3 337.92 209.661C338.702 210.685 339.483 211.71 340.264 212.735C340.695 213.301 341.667 212.743 341.23 212.168C334.8 203.724 328.325 195.314 321.806 186.939C315.27 178.543 308.69 170.183 302.064 161.859C295.438 153.535 288.768 145.247 282.052 136.996C280.379 134.94 278.704 132.886 277.025 130.835C275.609 129.105 274.209 127.356 272.656 125.745C269.806 122.789 266.244 120.177 261.981 120.106C259.475 120.064 257.049 120.862 254.72 121.706C252.21 122.617 249.705 123.545 247.198 124.464L232.076 130.01L228.295 131.397C227.624 131.643 227.914 132.728 228.593 132.479Z" fill="#E4E4E4"/>
<path d="M80.4356 70.3842C72.8042 66.4515 63.0313 67.2217 56.0186 72.1351C69.3947 74.4491 82.6244 77.5453 95.6401 81.4077C90.2352 78.2317 86.0073 73.2557 80.4356 70.3842Z" fill="#F2F2F2"/>
<path d="M55.9435 72.1216L54.4744 73.319C54.9713 72.8999 55.4879 72.507 56.0186 72.1351C55.9935 72.1308 55.9686 72.1259 55.9435 72.1216Z" fill="#F2F2F2"/>
<path d="M269.721 132.534C268.243 130.73 266.644 128.84 264.433 128.107L262.369 128.189C278.083 156.032 299.306 180.361 324.736 199.683C306.397 177.3 288.059 154.917 269.721 132.534Z" fill="#F2F2F2"/>
<path d="M141.353 117.65C142.309 121.13 144.461 124.159 147.429 126.201C148.577 126.985 149.934 127.736 150.327 129.071C150.533 129.923 150.406 130.821 149.971 131.581C149.537 132.331 149.009 133.022 148.4 133.638L148.345 133.847C145.497 132.154 142.788 130.014 141.214 127.093C139.641 124.173 139.422 120.345 141.353 117.65Z" fill="#F2F2F2"/>
<path d="M236.164 200.478C237.12 203.958 239.272 206.987 242.24 209.029C243.388 209.813 244.745 210.564 245.138 211.9C245.345 212.751 245.217 213.649 244.782 214.409C244.349 215.159 243.82 215.85 243.211 216.466L243.156 216.675C240.308 214.983 237.599 212.842 236.026 209.922C234.453 207.001 234.233 203.173 236.164 200.478Z" fill="#F2F2F2"/>
<path d="M46.9491 194.765C47.9044 198.246 50.0566 201.275 53.0248 203.317C54.1724 204.1 55.5301 204.852 55.9226 206.187C56.1292 207.038 56.0019 207.937 55.5672 208.697C55.1332 209.447 54.6052 210.138 53.996 210.754L53.9404 210.962C51.0926 209.27 48.3834 207.13 46.8103 204.209C45.2372 201.289 45.0176 197.461 46.9491 194.765Z" fill="#F2F2F2"/>
<path d="M264.689 42.598C276.15 42.598 285.441 33.2815 285.441 21.7889C285.441 10.2964 276.15 0.979889 264.689 0.979889C253.227 0.979889 243.936 10.2964 243.936 21.7889C243.936 33.2815 253.227 42.598 264.689 42.598Z" fill="#0B0B0B"/>
<path d="M302.139 5.82324C292.082 4.46006 280.599 9.91107 277.993 19.7463C277.336 17.9976 276.141 16.5036 274.582 15.4801C273.023 14.4566 271.18 13.9566 269.318 14.0524C267.457 14.1481 265.675 14.8347 264.228 16.0128C262.782 17.191 261.746 18.7998 261.271 20.6067L262.422 21.4337C283.976 26.1072 306.287 26.0061 327.797 21.1373C320.801 13.7648 312.197 7.18638 302.139 5.82324Z" fill="#F0F0F0"/>
<path d="M259.006 33.5687C248.949 32.2055 237.466 37.6565 234.86 47.4918C234.203 45.7431 233.008 44.249 231.449 43.2255C229.89 42.202 228.047 41.702 226.185 41.7978C224.324 41.8935 222.542 42.5801 221.095 43.7583C219.649 44.9364 218.613 46.5452 218.138 48.3522L219.289 49.1791C240.843 53.8527 263.154 53.7515 284.664 48.8827C277.668 41.5102 269.064 34.9318 259.006 33.5687Z" fill="#F0F0F0"/>
<path d="M346.789 38.8149C346.747 38.815 346.706 38.8085 346.666 38.7958C239.075 4.67785 144.249 9.13937 83.6447 18.89C75.3971 20.2165 67.1275 21.7486 59.0655 23.444C57.0073 23.8763 54.872 24.3397 52.719 24.8223C50.1478 25.3964 47.6107 25.9878 45.1779 26.5791C44.1273 26.8285 43.0972 27.0799 42.0875 27.3334C40.5582 27.7119 39.0065 28.1064 37.3431 28.5399C35.4843 29.0204 33.5958 29.5245 31.7287 30.0381C31.7219 30.0405 31.7149 30.0425 31.7078 30.044L31.708 30.0445C29.5992 30.6218 27.5014 31.2159 25.4728 31.8092C24.3748 32.1272 23.3146 32.4408 22.2991 32.7504C22.1857 32.7819 22.0851 32.8121 21.9832 32.8432L21.7651 32.9098C21.6387 32.9484 21.5139 32.9863 21.3891 33.0221L21.3812 33.0245L21.3814 33.0249L21.0512 33.1277C20.6574 33.2473 20.2731 33.364 19.8952 33.4804C9.90751 36.5676 4.41694 38.7639 4.3627 38.7854C4.3131 38.8054 4.26007 38.8153 4.20664 38.8147C4.1532 38.8141 4.10041 38.8029 4.05128 38.7819C4.00215 38.7608 3.95763 38.7302 3.92028 38.6919C3.88293 38.6536 3.85347 38.6083 3.83359 38.5585C3.81371 38.5088 3.8038 38.4556 3.80441 38.402C3.80502 38.3485 3.81615 38.2955 3.83717 38.2463C3.85818 38.197 3.88867 38.1524 3.92688 38.1149C3.9651 38.0775 4.0103 38.0479 4.0599 38.028C4.11454 38.0065 9.63193 35.799 19.656 32.7002C20.0353 32.5835 20.4205 32.4667 20.8155 32.3468L21.1223 32.2511C21.1328 32.2472 21.1434 32.244 21.1541 32.2408C21.2783 32.2053 21.4022 32.1675 21.5282 32.1292L21.7468 32.0627C21.8557 32.0296 21.9629 31.9969 22.0728 31.9666C23.0814 31.659 24.1451 31.3447 25.2459 31.0255C27.2753 30.4318 29.375 29.8377 31.4855 29.2595C31.4921 29.2571 31.4988 29.2555 31.5054 29.2535C33.379 28.7383 35.2745 28.2319 37.1392 27.7498C38.8052 27.3158 40.3599 26.9206 41.8918 26.5412C42.9057 26.2882 43.9379 26.0363 44.9882 25.7854C47.4237 25.1933 49.9659 24.6011 52.5418 24.0258C54.6981 23.5428 56.837 23.0782 58.8986 22.6455C66.9731 20.9473 75.2557 19.4128 83.5157 18.0844C144.207 8.31976 239.169 3.85104 346.911 38.018C347.004 38.0473 347.083 38.1089 347.134 38.1916C347.186 38.2744 347.206 38.3728 347.191 38.4691C347.176 38.5654 347.127 38.6532 347.054 38.7166C346.98 38.78 346.886 38.8149 346.789 38.8149Z" fill="#CCCCCC"/>
<path d="M107.514 172.283C107.373 171.87 107.136 171.497 106.822 171.194C106.706 171.086 106.581 170.989 106.448 170.904C105.386 170.194 103.799 170.035 102.79 170.904C102.688 170.993 102.594 171.09 102.509 171.194C102.208 171.565 101.899 171.928 101.581 172.283C101.06 172.879 100.527 173.454 99.9698 174.013C99.8111 174.168 99.6524 174.328 99.4896 174.483C99.396 174.576 99.3024 174.666 99.2088 174.756C98.8507 175.099 98.4845 175.429 98.1142 175.756C97.9189 175.931 97.7236 176.102 97.5242 176.27C97.2271 176.519 96.9301 176.767 96.629 177.008C96.6005 177.029 96.572 177.049 96.5435 177.073C96.5354 177.078 96.5313 177.086 96.5232 177.09C96.5191 177.09 96.5151 177.09 96.511 177.098C96.5 177.102 96.4902 177.109 96.4825 177.118C96.393 177.18 96.3319 177.22 96.2872 177.257C96.3035 177.249 96.3197 177.237 96.336 177.229C96.2628 177.286 96.1854 177.343 96.1122 177.4C95.4001 177.926 94.6717 178.432 93.9271 178.905C92.0847 180.088 90.1496 181.118 88.1407 181.986C88.0065 182.039 87.8681 182.096 87.7298 182.149C82.4702 184.31 76.7649 185.153 71.1073 184.606C70.5295 184.561 69.9516 184.499 69.3738 184.422C68.7065 184.324 68.0432 184.206 67.384 184.071C64.8744 183.569 62.4189 182.826 60.0514 181.851C57.09 180.492 54.2733 178.835 51.6446 176.906C51.2377 176.617 50.8267 176.327 50.4157 176.045C50.8837 174.895 51.3435 173.744 51.7911 172.585C52.0149 172.026 52.2305 171.467 52.4421 170.904C54.1064 166.567 55.669 162.189 57.1664 157.795C58.6801 153.343 60.1084 148.866 61.4512 144.362C61.5896 143.905 61.7239 143.449 61.8541 142.992C62.558 140.613 63.2335 138.229 63.8805 135.839C63.9415 135.606 64.0067 135.378 64.0636 135.145C64.2508 134.46 64.4339 133.774 64.613 133.089C65.0199 131.542 64.1002 129.694 62.4807 129.323C61.701 129.122 60.874 129.233 60.1742 129.632C59.4743 130.031 58.9562 130.687 58.729 131.461C58.554 132.122 58.379 132.779 58.2 133.44C57.3414 136.635 56.438 139.818 55.4899 142.992C55.3516 143.449 55.2132 143.905 55.0749 144.362C52.9833 151.274 50.687 158.117 48.1858 164.89C47.8847 165.71 47.5795 166.528 47.2702 167.342C47.1197 167.742 46.9691 168.142 46.8145 168.542C46.5175 169.329 46.2123 170.117 45.9071 170.904C45.7321 171.365 45.5531 171.826 45.374 172.283C45.256 172.573 45.1421 172.863 45.0282 173.148C43.868 172.731 42.6659 172.441 41.4432 172.283L41.2479 172.259C40.3 172.144 39.3413 172.153 38.3954 172.283C36.9798 172.449 35.6177 172.924 34.4055 173.676C33.1933 174.428 32.1606 175.437 31.3802 176.633C29.4393 179.697 29.4637 184.079 32.1859 186.682C34.9896 189.363 39.2337 189.343 42.5338 187.666C44.2826 186.717 45.7572 185.331 46.8145 183.643C47.2196 183.031 47.5918 182.397 47.9295 181.745C48.0149 181.802 48.1004 181.86 48.1858 181.921C48.5113 182.149 48.8369 182.382 49.1583 182.61C51.0314 183.971 53.0052 185.186 55.0627 186.246C59.4866 188.451 64.2487 189.895 69.1501 190.518C69.2599 190.53 69.3657 190.546 69.4756 190.559C70.0168 190.628 70.562 190.681 71.1073 190.726C78.9291 191.317 86.7604 189.712 93.7236 186.091C94.3136 185.785 94.8982 185.464 95.4774 185.128C96.3767 184.606 97.2556 184.051 98.1142 183.463C98.5822 183.145 99.0379 182.822 99.4896 182.484C101.463 181.026 103.303 179.394 104.987 177.608C105.626 176.935 106.238 176.24 106.822 175.523C107.375 174.937 107.694 174.167 107.717 173.36C107.714 172.992 107.645 172.627 107.514 172.283ZM40.133 182.002C40.2184 181.941 40.3039 181.876 40.3853 181.811C40.3609 181.872 40.2428 181.941 40.133 182.002ZM41.4392 180.684C41.3456 180.791 41.2601 180.897 41.1665 181.003C40.8818 181.322 40.5759 181.622 40.251 181.9C40.2062 181.941 40.1574 181.982 40.1086 182.019C40.108 182.019 40.1075 182.019 40.107 182.019C40.1065 182.019 40.106 182.019 40.1057 182.02C40.1053 182.02 40.105 182.021 40.1048 182.021C40.1046 182.022 40.1045 182.022 40.1045 182.023C40.0457 182.049 39.9886 182.079 39.9336 182.113C39.7586 182.219 39.5796 182.317 39.3965 182.406C39.0379 182.539 38.6691 182.641 38.2937 182.712C38.0053 182.733 37.7158 182.736 37.427 182.72H37.4188C37.2195 182.676 37.0226 182.622 36.8288 182.557C36.7312 182.508 36.6376 182.451 36.544 182.394C36.5074 182.361 36.4748 182.329 36.4545 182.308C36.4147 182.272 36.378 182.232 36.3446 182.19C36.3446 182.19 36.3445 182.189 36.3443 182.188C36.3441 182.188 36.3438 182.188 36.3435 182.187C36.3431 182.187 36.3426 182.186 36.3421 182.186C36.3416 182.186 36.3411 182.186 36.3406 182.186C36.2958 182.104 36.2469 182.023 36.2022 181.941C36.1999 181.939 36.1984 181.936 36.1981 181.933C36.1656 181.831 36.1371 181.725 36.1127 181.619C36.1039 181.433 36.1052 181.246 36.1167 181.06C36.1713 180.799 36.2448 180.543 36.3365 180.293C36.4189 180.115 36.5127 179.944 36.6172 179.779C36.6254 179.762 36.6661 179.697 36.7108 179.624C36.7149 179.62 36.7149 179.62 36.7149 179.615C36.7759 179.546 36.837 179.473 36.9021 179.407C37.012 179.285 37.13 179.179 37.248 179.069C37.4775 178.918 37.7152 178.781 37.9601 178.657C38.3485 178.518 38.7472 178.41 39.1523 178.334C39.7498 178.287 40.3503 178.292 40.9468 178.351C41.5118 178.449 42.0693 178.587 42.6152 178.763C42.2843 179.407 41.9076 180.026 41.488 180.615C41.4717 180.64 41.4555 180.664 41.4392 180.684ZM36.9143 179.342C36.8784 179.4 36.8361 179.453 36.7881 179.501C36.8204 179.441 36.8631 179.387 36.9143 179.342Z" fill="#3F3D56"/>
<path d="M95.2821 130.612C95.2455 131.893 95.2089 133.175 95.1722 134.456C95.0949 137.3 95.0149 140.145 94.9321 142.992C94.8467 146.194 94.7572 149.396 94.6636 152.596C94.6188 154.249 94.5727 155.901 94.5252 157.554C94.3991 162.005 94.2743 166.455 94.1509 170.904C94.1387 171.365 94.1224 171.822 94.1102 172.283C94.0491 174.491 93.9881 176.698 93.9271 178.905C93.8579 181.301 93.7901 183.696 93.7236 186.091C93.6748 187.886 93.6246 189.683 93.573 191.481C93.2068 204.509 92.8406 217.537 92.4744 230.565C92.4589 231.372 92.1324 232.141 91.5634 232.712C90.9944 233.282 90.2271 233.61 89.4225 233.625C88.6151 233.619 87.8427 233.294 87.2717 232.722C86.7008 232.149 86.3772 231.375 86.3707 230.565C86.5741 223.237 86.7803 215.909 86.9892 208.581C87.1723 201.955 87.3581 195.328 87.5466 188.702C87.6077 186.519 87.6687 184.335 87.7298 182.149C87.8234 178.861 87.9156 175.572 88.0065 172.283C88.0187 171.822 88.0349 171.365 88.0472 170.904C88.0553 170.5 88.0675 170.1 88.0797 169.696C88.2587 163.311 88.4378 156.924 88.6168 150.536C88.6901 148.022 88.7606 145.508 88.8284 142.992C88.9098 140.123 88.9912 137.256 89.0726 134.39C89.1092 133.13 89.1418 131.873 89.1784 130.612C89.1938 129.805 89.5203 129.036 90.0894 128.465C90.6584 127.895 91.4257 127.568 92.2302 127.552C93.0376 127.559 93.8101 127.883 94.381 128.456C94.952 129.028 95.2756 129.803 95.2821 130.612Z" fill="#3F3D56"/>
<path d="M262.698 131.461C259.498 143.612 255.673 155.589 251.239 167.343C250.015 170.585 248.764 173.821 247.426 177.018L247.733 176.287C247.136 177.81 246.373 179.262 245.459 180.617C245.397 180.704 245.333 180.791 245.269 180.877C245.585 180.471 245.645 180.391 245.449 180.636C245.346 180.759 245.244 180.882 245.137 181.002C244.852 181.321 244.546 181.622 244.222 181.901C244.14 181.971 244.057 182.039 243.973 182.106L244.354 181.809C244.31 181.914 243.999 182.053 243.902 182.112C243.589 182.302 243.262 182.468 242.924 182.609L243.653 182.301C243.099 182.524 242.521 182.683 241.931 182.774L242.742 182.665C242.163 182.745 241.575 182.752 240.993 182.684L241.805 182.793C241.329 182.727 240.864 182.602 240.419 182.419L241.148 182.727C240.911 182.624 240.683 182.502 240.465 182.362C240.355 182.29 240.015 182.032 240.459 182.372C240.92 182.725 240.518 182.402 240.423 182.308C240.344 182.23 240.273 182.145 240.196 182.065C239.837 181.696 240.601 182.701 240.357 182.269C240.227 182.053 240.108 181.83 240 181.601L240.307 182.332C240.167 181.984 240.068 181.621 240.011 181.25L240.12 182.064C240.062 181.603 240.062 181.136 240.119 180.674L240.01 181.488C240.085 180.973 240.22 180.469 240.415 179.986L240.107 180.717C240.243 180.393 240.403 180.079 240.586 179.78C240.671 179.625 240.77 179.478 240.883 179.342C240.903 179.349 240.367 179.96 240.651 179.651C240.726 179.571 240.795 179.486 240.871 179.406C240.991 179.278 241.12 179.161 241.247 179.039C241.672 178.634 240.652 179.433 241.143 179.112C241.498 178.878 241.872 178.673 242.261 178.501L241.532 178.809C242.184 178.541 242.867 178.357 243.565 178.262L242.754 178.372C243.628 178.271 244.511 178.281 245.383 178.403L244.571 178.294C245.675 178.461 246.754 178.766 247.783 179.199L247.054 178.891C249.247 179.835 251.189 181.237 253.128 182.611C255.001 183.971 256.974 185.186 259.031 186.245C263.455 188.451 268.217 189.896 273.119 190.519C280.149 191.382 287.282 190.462 293.865 187.842C300.447 185.222 306.268 180.986 310.794 175.523C311.346 174.936 311.664 174.166 311.687 173.359C311.682 172.549 311.361 171.773 310.794 171.196C309.674 170.165 307.559 169.874 306.478 171.196C305.453 172.45 304.351 173.639 303.179 174.756C302.632 175.277 302.07 175.782 301.493 176.27C301.164 176.549 300.83 176.823 300.492 177.091C300.332 177.217 299.833 177.555 300.599 177.01C300.423 177.135 300.255 177.271 300.082 177.4C297.519 179.294 294.742 180.878 291.809 182.118L292.538 181.81C289.39 183.134 286.083 184.042 282.702 184.512L283.513 184.403C280.035 184.861 276.511 184.856 273.034 184.387L273.845 184.496C270.369 184.018 266.969 183.089 263.73 181.734L264.459 182.042C261.334 180.656 258.369 178.933 255.615 176.905C254.181 175.841 252.669 174.887 251.092 174.051C249.255 173.11 247.266 172.504 245.217 172.261C241.377 171.807 237.463 173.308 235.351 176.635C233.408 179.697 233.433 184.079 236.154 186.682C238.957 189.364 243.202 189.341 246.505 187.664C249.686 186.048 251.596 182.692 252.94 179.527C255.964 172.405 258.641 165.119 261.135 157.795C263.603 150.549 265.841 143.23 267.849 135.838C268.097 134.922 268.342 134.006 268.584 133.088C268.991 131.543 268.071 129.694 266.452 129.324C265.672 129.123 264.845 129.233 264.144 129.632C263.444 130.031 262.926 130.687 262.698 131.461Z" fill="#3F3D56"/>
<path d="M293.149 130.612L292.05 169.698L290.957 208.58L290.34 230.565C290.346 231.375 290.67 232.149 291.241 232.721C291.812 233.294 292.584 233.618 293.391 233.625C294.196 233.61 294.963 233.282 295.532 232.712C296.101 232.141 296.428 231.372 296.443 230.565L297.542 191.48L298.635 152.598L299.252 130.612C299.246 129.803 298.922 129.028 298.351 128.456C297.78 127.883 297.008 127.559 296.201 127.552C295.396 127.567 294.629 127.895 294.06 128.465C293.491 129.036 293.164 129.805 293.149 130.612Z" fill="#3F3D56"/>
<path opacity="0.2" d="M187.514 219.652H188.462V176.385H210.569V175.438H188.462V157.181H205.534C205.284 156.862 205.027 156.547 204.762 156.236H188.462V144.177C188.149 144.043 187.833 143.914 187.514 143.792V156.236H168.938V140.786C168.62 140.8 168.306 140.822 167.99 140.849V156.236H153.17V144.708C152.852 144.85 152.539 144.998 152.228 145.154V156.236H139.77V157.181H152.228V175.438H139.77V176.385H152.228V219.652H153.17V176.385C155.117 176.385 157.044 176.769 158.842 177.516C160.64 178.262 162.274 179.357 163.651 180.737C165.027 182.117 166.118 183.755 166.863 185.558C167.608 187.361 167.991 189.294 167.99 191.245V219.652H168.938V176.385H187.514V219.652ZM153.17 175.438V157.181H167.99V175.438H153.17ZM168.938 175.438V157.181H169.31C171.701 157.181 174.068 157.653 176.277 158.571C178.486 159.489 180.492 160.833 182.183 162.529C183.873 164.224 185.214 166.236 186.129 168.451C187.044 170.666 187.515 173.04 187.514 175.438H168.938Z" fill="black"/>
<path d="M181.727 206.679C180.534 212.016 177.676 216.832 173.568 220.43C173.267 220.691 172.966 220.944 172.653 221.193C171.892 221.262 171.136 221.333 170.386 221.405C169.764 221.462 169.149 221.523 168.539 221.58L168.429 221.593L168.352 220.923L168.043 218.214C166.843 216.25 166.099 214.041 165.867 211.75C165.634 209.458 165.919 207.144 166.7 204.978C167.774 202.073 169.719 199.506 171.632 196.96C174.272 193.443 176.84 189.967 176.934 185.679C178.233 187.346 179.313 189.174 180.148 191.118C179.361 191.489 178.653 192.012 178.065 192.656C177.898 192.839 177.731 193.096 177.845 193.317C177.943 193.504 178.187 193.549 178.398 193.574C178.907 193.627 179.42 193.68 179.929 193.733C180.335 193.778 180.742 193.819 181.149 193.863C181.642 195.484 181.975 197.148 182.146 198.833C182.42 201.454 182.279 204.103 181.727 206.679Z" fill="#3F3D56"/>
<path d="M195.237 195.985C192.836 197.736 191.432 200.253 190.341 203.028C189.224 203.386 188.218 204.03 187.424 204.896C187.257 205.08 187.09 205.337 187.204 205.557C187.302 205.745 187.546 205.79 187.758 205.814C188.266 205.867 188.779 205.921 189.288 205.974C188.197 209.254 187.196 212.649 185.267 215.419C183.984 217.248 182.312 218.769 180.372 219.871C179.843 220.173 179.297 220.444 178.736 220.683C176.669 220.842 174.641 221.012 172.653 221.193C171.892 221.262 171.136 221.333 170.386 221.405C169.764 221.462 169.149 221.523 168.539 221.58C168.535 221.356 168.535 221.132 168.539 220.907C168.668 214.929 170.861 209.181 174.744 204.643C174.927 204.431 175.115 204.223 175.306 204.015C177.273 201.908 179.587 200.155 182.146 198.833C186.178 196.731 190.698 195.748 195.237 195.985Z" fill="#0B0B0B"/>
<path d="M171.09 219.312L170.622 220.699L170.386 221.405C169.764 221.462 169.149 221.523 168.539 221.58L168.429 221.593C167.754 221.662 167.082 221.731 166.411 221.801C166.236 221.597 166.061 221.389 165.89 221.176C161.643 216.019 159.604 209.386 160.219 202.726C160.834 196.066 164.054 189.921 169.174 185.634C168.637 188.453 169.263 191.154 170.293 193.835C170.183 193.88 170.077 193.925 169.975 193.974C169.188 194.346 168.48 194.868 167.892 195.512C167.725 195.695 167.558 195.953 167.672 196.173C167.77 196.361 168.014 196.405 168.226 196.43C168.734 196.483 169.247 196.536 169.756 196.589C170.163 196.634 170.569 196.675 170.976 196.72C171.168 196.74 171.359 196.76 171.55 196.781C171.579 196.842 171.603 196.899 171.632 196.96C172.791 199.482 174.04 202.016 174.744 204.643C174.921 205.303 175.059 205.972 175.159 206.647C175.473 208.929 175.27 211.252 174.565 213.445C173.861 215.637 172.673 217.642 171.09 219.312Z" fill="#0B0B0B"/>
<path d="M212.05 160.133C208.547 153.281 203.119 147.516 196.736 143.28C190.333 139.049 182.985 136.473 175.348 135.781C174.347 135.689 173.343 135.636 172.337 135.62C171.148 135.602 153.267 140.774 147.277 144.997C141.29 149.169 136.365 154.694 132.899 161.125C129.439 167.592 127.738 174.858 127.965 182.193C128.262 189.572 130.313 196.773 133.948 203.196C137.533 209.598 142.624 215.025 148.777 219.005C155.019 222.998 161.288 233.586 168.657 233.96C176.081 234.336 184.549 224.349 191.32 221.316C198.092 218.259 203.946 213.475 208.299 207.442C212.529 201.529 215.266 194.676 216.274 187.47C217.321 180.092 216.833 172.482 214.32 165.43C213.675 163.618 212.917 161.849 212.05 160.133C211.325 158.702 209.203 158.176 207.874 159.035C207.19 159.458 206.694 160.129 206.49 160.908C206.286 161.688 206.39 162.517 206.779 163.222C207.204 164.062 207.6 164.915 207.966 165.783L207.658 165.052C209.041 168.388 209.982 171.891 210.456 175.472L210.347 174.659C210.851 178.544 210.842 182.479 210.32 186.362L210.429 185.548C209.902 189.431 208.868 193.227 207.355 196.84L207.663 196.109C206.884 197.952 205.977 199.738 204.948 201.453C204.426 202.32 203.873 203.166 203.287 203.992C203.03 204.354 202.765 204.71 202.498 205.065C202.15 205.529 202.973 204.46 202.613 204.915C202.552 204.992 202.491 205.07 202.429 205.147C202.245 205.379 202.057 205.608 201.867 205.836C200.598 207.353 199.214 208.77 197.726 210.072C197.356 210.397 196.979 210.714 196.596 211.023C196.405 211.178 196.217 211.339 196.018 211.482C196.025 211.477 196.66 210.993 196.284 211.274C196.166 211.362 196.049 211.452 195.931 211.54C195.141 212.126 194.331 212.683 193.5 213.209C191.586 214.418 189.578 215.471 187.495 216.356L188.224 216.048C184.632 217.564 180.857 218.6 176.995 219.129L177.806 219.02C173.946 219.543 170.034 219.55 166.173 219.041L166.984 219.15C163.474 218.677 160.042 217.747 156.773 216.382L157.502 216.69C155.608 215.888 153.782 214.935 152.042 213.838C151.181 213.294 150.342 212.716 149.526 212.105C149.41 212.017 149.294 211.929 149.178 211.841C148.806 211.559 149.446 212.049 149.451 212.053C149.234 211.897 149.026 211.73 148.826 211.553C148.432 211.231 148.044 210.902 147.662 210.565C146.134 209.215 144.707 207.755 143.392 206.195C143.063 205.805 142.741 205.409 142.426 205.007C142.29 204.834 142.041 204.481 142.591 205.223C142.518 205.126 142.443 205.03 142.37 204.933C142.195 204.699 142.022 204.464 141.851 204.228C141.254 203.399 140.686 202.549 140.147 201.679C138.93 199.71 137.868 197.649 136.971 195.515L137.279 196.246C135.81 192.742 134.806 189.061 134.292 185.296L134.401 186.109C133.937 182.638 133.93 179.122 134.381 175.649L134.272 176.463C134.734 173.1 135.636 169.813 136.955 166.687L136.648 167.418C137.478 165.461 138.456 163.571 139.576 161.764C140.136 160.86 140.73 159.978 141.357 159.118C141.499 158.923 141.644 158.729 141.789 158.536C141.921 158.361 142.284 157.926 141.665 158.694C141.726 158.619 141.784 158.542 141.844 158.466C142.188 158.028 142.541 157.598 142.902 157.174C144.268 155.57 145.748 154.068 147.33 152.678C147.73 152.326 148.136 151.982 148.549 151.646C148.736 151.493 148.925 151.341 149.115 151.192C149.191 151.132 149.268 151.073 149.343 151.013C148.53 151.661 149.117 151.189 149.302 151.05C150.152 150.412 151.025 149.805 151.921 149.23C153.911 147.953 156.006 146.847 158.182 145.922L157.453 146.23C160.61 144.901 174.6 141.763 177.145 142.105L176.333 141.996C180.073 142.52 183.729 143.532 187.206 145.008L186.477 144.7C188.239 145.45 189.952 146.313 191.604 147.282C192.43 147.768 193.239 148.279 194.033 148.817C194.408 149.072 194.779 149.333 195.147 149.599C195.33 149.732 195.513 149.866 195.695 150.002C195.795 150.078 195.895 150.154 195.996 150.23C196.419 150.548 195.414 149.77 195.857 150.121C197.341 151.29 198.75 152.551 200.076 153.897C200.727 154.562 201.356 155.248 201.963 155.955C202.274 156.318 202.578 156.686 202.877 157.06C203.025 157.246 203.53 157.917 202.911 157.095C203.062 157.296 203.215 157.495 203.365 157.698C204.65 159.443 205.792 161.291 206.779 163.222C207.509 164.649 209.622 165.181 210.955 164.32C211.64 163.897 212.136 163.226 212.339 162.446C212.543 161.666 212.44 160.838 212.05 160.133Z" fill="#3F3D56"/>
<path d="M176.489 210.072C176.174 210.087 175.862 210.004 175.596 209.835C175.329 209.666 175.121 209.418 175 209.127C174.878 208.835 174.849 208.513 174.916 208.204C174.983 207.895 175.143 207.614 175.375 207.399C175.413 207.245 175.441 207.134 175.48 206.979C175.466 206.946 175.452 206.912 175.438 206.878C174.022 203.493 164.986 212.931 164.596 216.113C164.424 217.519 164.496 218.945 164.81 220.326C161.884 213.925 160.364 206.967 160.354 199.924C160.353 198.157 160.451 196.391 160.647 194.635C160.809 193.195 161.034 191.766 161.321 190.346C162.89 182.646 166.258 175.428 171.149 169.286C173.946 169.442 176.397 169.015 176.634 163.58C176.676 162.613 177.391 161.775 177.549 160.823C177.282 160.858 177.011 160.88 176.744 160.898C176.66 160.902 176.573 160.906 176.49 160.911L176.458 160.912C176.165 160.925 175.874 160.853 175.62 160.704C175.367 160.556 175.161 160.337 175.029 160.073C174.897 159.81 174.843 159.515 174.875 159.222C174.906 158.929 175.022 158.651 175.207 158.423C175.322 158.28 175.437 158.138 175.553 157.996C175.728 157.777 175.907 157.562 176.083 157.342C176.103 157.321 176.122 157.299 176.139 157.276C176.341 157.026 176.542 156.78 176.744 156.53C176.376 155.958 175.882 155.479 175.299 155.13C173.281 153.945 170.497 154.765 169.039 156.596C167.577 158.426 167.301 160.994 167.809 163.281C168.308 165.227 169.134 167.074 170.252 168.742C170.142 168.882 170.028 169.018 169.919 169.159C167.918 171.738 166.175 174.508 164.713 177.428C165.127 174.189 160.069 162.492 158.114 160.014C155.765 157.038 150.948 158.337 150.534 162.109C150.53 162.146 150.526 162.182 150.522 162.219C150.812 162.383 151.097 162.558 151.375 162.742C151.725 162.976 151.995 163.311 152.152 163.702C152.309 164.093 152.344 164.522 152.253 164.934C152.162 165.345 151.949 165.72 151.642 166.008C151.336 166.296 150.949 166.485 150.534 166.549L150.491 166.556C146.603 172.122 159.068 186.612 162.188 183.358C160.72 187.532 159.798 191.878 159.448 196.29C159.249 198.892 159.261 201.507 159.483 204.107L159.47 204.015C158.776 198.351 146.883 189.929 143.41 190.631C141.41 191.035 139.439 190.943 139.743 192.967C139.748 192.999 139.753 193.031 139.758 193.064C140.297 193.284 140.821 193.537 141.329 193.823C141.62 193.987 141.904 194.162 142.182 194.346C142.532 194.58 142.802 194.915 142.959 195.306C143.116 195.697 143.151 196.127 143.06 196.538C142.969 196.95 142.756 197.324 142.45 197.612C142.143 197.9 141.756 198.089 141.341 198.153L141.298 198.16C141.268 198.164 141.242 198.168 141.211 198.173C139.441 204.279 152.567 214.135 160.547 210.999H160.551C161.342 214.445 162.488 217.799 163.97 221.007H176.183C176.227 220.871 176.266 220.73 176.306 220.594C175.175 220.665 174.04 220.598 172.926 220.392C173.832 219.277 174.739 218.154 175.645 217.039C175.665 217.018 175.684 216.996 175.702 216.973C176.161 216.402 176.625 215.836 177.085 215.265L177.085 215.265C177.11 213.516 176.91 211.771 176.49 210.073L176.489 210.072ZM162.503 182.485L162.51 182.476L162.503 182.494V182.485ZM159.798 206.939L159.693 206.702C159.697 206.53 159.697 206.359 159.693 206.184C159.693 206.135 159.684 206.087 159.684 206.039C159.724 206.342 159.759 206.644 159.802 206.947L159.798 206.939Z" fill="#3F3D56"/>
<path d="M39.2581 184.589C41.7302 184.589 43.7342 182.58 43.7342 180.101C43.7342 177.622 41.7302 175.613 39.2581 175.613C36.786 175.613 34.782 177.622 34.782 180.101C34.782 182.58 36.786 184.589 39.2581 184.589Z" fill="#3F3D56"/>
<path d="M92.9708 233.552C95.4429 233.552 97.4469 231.542 97.4469 229.063C97.4469 226.585 95.4429 224.575 92.9708 224.575C90.4988 224.575 88.4948 226.585 88.4948 229.063C88.4948 231.542 90.4988 233.552 92.9708 233.552Z" fill="#3F3D56"/>
<path d="M296.835 233.552C299.307 233.552 301.311 231.542 301.311 229.063C301.311 226.585 299.307 224.575 296.835 224.575C294.363 224.575 292.359 226.585 292.359 229.063C292.359 231.542 294.363 233.552 296.835 233.552Z" fill="#3F3D56"/>
<path d="M307.822 176.429C310.294 176.429 312.298 174.419 312.298 171.941C312.298 169.462 310.294 167.452 307.822 167.452C305.35 167.452 303.346 169.462 303.346 171.941C303.346 174.419 305.35 176.429 307.822 176.429Z" fill="#3F3D56"/>
<path d="M294.801 134.811C297.273 134.811 299.277 132.801 299.277 130.322C299.277 127.844 297.273 125.834 294.801 125.834C292.328 125.834 290.324 127.844 290.324 130.322C290.324 132.801 292.328 134.811 294.801 134.811Z" fill="#3F3D56"/>
<path d="M108.027 171.941C108.024 173.087 107.582 174.189 106.792 175.017C106.002 175.846 104.924 176.338 103.782 176.392C102.64 176.447 101.521 176.059 100.656 175.308C99.7915 174.558 99.2476 173.503 99.137 172.362C99.0264 171.221 99.3575 170.081 100.062 169.178C100.766 168.275 101.79 167.678 102.921 167.511C104.052 167.343 105.204 167.618 106.138 168.279C107.073 168.939 107.718 169.935 107.941 171.059C107.999 171.349 108.027 171.645 108.027 171.941Z" fill="#3F3D56"/>
<path d="M197.548 147.867C200.02 147.867 202.024 145.858 202.024 143.379C202.024 140.9 200.02 138.891 197.548 138.891C195.076 138.891 193.072 140.9 193.072 143.379C193.072 145.858 195.076 147.867 197.548 147.867Z" fill="#3F3D56"/>
<path d="M153.194 143.379C153.192 144.526 152.749 145.627 151.959 146.456C151.169 147.284 150.092 147.777 148.949 147.831C147.807 147.885 146.688 147.497 145.824 146.747C144.959 145.997 144.415 144.942 144.304 143.801C144.194 142.66 144.525 141.52 145.229 140.617C145.934 139.714 146.957 139.117 148.088 138.949C149.219 138.782 150.371 139.057 151.306 139.717C152.24 140.378 152.886 141.373 153.109 142.498C153.166 142.788 153.195 143.083 153.194 143.379Z" fill="#3F3D56"/>
<path d="M95.4123 130.322C95.4096 131.469 94.9675 132.57 94.1774 133.399C93.3873 134.228 92.3097 134.72 91.1676 134.774C90.0255 134.829 88.9064 134.44 88.0418 133.69C87.1772 132.94 86.6333 131.885 86.5226 130.744C86.412 129.603 86.7431 128.463 87.4474 127.56C88.1517 126.657 89.1753 126.06 90.3064 125.892C91.4375 125.725 92.5895 126 93.524 126.661C94.4585 127.321 95.104 128.317 95.3269 129.441C95.3843 129.731 95.4129 130.027 95.4123 130.322Z" fill="#3F3D56"/>
<path d="M244.343 186.221C246.815 186.221 248.819 184.212 248.819 181.733C248.819 179.254 246.815 177.245 244.343 177.245C241.871 177.245 239.867 179.254 239.867 181.733C239.867 184.212 241.871 186.221 244.343 186.221Z" fill="#3F3D56"/>
<path d="M173.947 145.419C177.543 145.419 180.457 142.496 180.457 138.891C180.457 135.285 177.543 132.363 173.947 132.363C170.351 132.363 167.436 135.285 167.436 138.891C167.436 142.496 170.351 145.419 173.947 145.419Z" fill="#3F3D56"/>
<path d="M350.016 233.895L0.984503 234.02C0.920876 234.02 0.857872 234.007 0.799089 233.983C0.740306 233.959 0.686898 233.923 0.641907 233.878C0.596917 233.833 0.561224 233.779 0.536875 233.72C0.512527 233.661 0.5 233.598 0.5 233.534C0.5 233.47 0.512527 233.407 0.536875 233.348C0.561224 233.289 0.596917 233.236 0.641907 233.191C0.686898 233.146 0.740306 233.11 0.799089 233.085C0.857872 233.061 0.920876 233.048 0.984503 233.048L350.016 232.923C350.144 232.923 350.267 232.975 350.357 233.066C350.448 233.157 350.499 233.28 350.499 233.409C350.499 233.537 350.448 233.661 350.357 233.752C350.267 233.843 350.144 233.894 350.016 233.895Z" fill="#CACACA"/>
</g>
<defs>
<clipPath id="clip0_1_212">
<rect width="350" height="233.04" fill="white" transform="translate(0.5 0.979889)"/>
</clipPath>
</defs>
</svg>
